{
  "source": "C:\\Users\\Peter\\Desktop\\stuff\\MIUN\\quantitative_research\\video_compression\\videos\\BVI-HD\\MartialArts_1920x1080_60fps.mp4",
  "output": "C:\\Users\\Peter\\Desktop\\stuff\\MIUN\\quantitative_research\\video_compression\\compressed_videos\\BVI-HD\\h264\\12\\MartialArts_1920x1080_60fps_h264.mp4",
  "codec": "h264",
  "ok": "Input #0, mov,mp4,m4a,3gp,3g2,mj2, from 'C:\\Users\\Peter\\Desktop\\stuff\\MIUN\\quantitative_research\\video_compression\\videos\\BVI-HD\\MartialArts_1920x1080_60fps.mp4':\n  Metadata:\n    major_brand     : isom\n    minor_version   : 512\n    compatible_brands: isomiso2avc1mp41\n    encoder         : Lavf54.28.101\n  Duration: 00:00:05.00, start: 0.000000, bitrate: 120609 kb/s\n  Stream #0:0[0x1](und): Video: h264 (High 4:4:4 Predictive) (avc1 / 0x31637661), yuv420p(progressive), 1920x1080, 120605 kb/s, 60 fps, 60 tbr, 60 tbn (default)\n    Metadata:\n      handler_name    : VideoHandler\n      vendor_id       : [0][0][0][0]\n[out#0/mp4 @ 000001f833259c00] Codec AVOption b:a (set bitrate (in bits/s)) has not been used for any stream. The most likely reason is either wrong type (e.g. a video option with no video streams) or that it is a private option of some decoder which was not actually used for any stream.\nStream mapping:\n  Stream #0:0 -> #0:0 (h264 (native) -> h264 (libx264))\nPress [q] to stop, [?] for help\n[libx264 @ 000001f83325e300] using cpu capabilities: MMX2 SSE2Fast SSSE3 SSE4.2 AVX FMA3 BMI2 AVX2\n[libx264 @ 000001f83325e300] profile High, level 5.0, 4:2:0, 8-bit\n[libx264 @ 000001f83325e300] 264 - core 165 r3222 b35605a - H.264/MPEG-4 AVC codec - Copyleft 2003-2025 - http://www.videolan.org/x264.html - options: cabac=1 ref=5 deblock=1:0:0 analyse=0x3:0x113 me=hex subme=8 psy=1 psy_rd=1.00:0.00 mixed_ref=1 me_range=16 chroma_me=1 trellis=2 8x8dct=1 cqm=0 deadzone=21,11 fast_pskip=1 chroma_qp_offset=-2 threads=18 lookahead_threads=3 sliced_threads=0 nr=0 decimate=1 interlaced=0 bluray_compat=0 constrained_intra=0 bframes=3 b_pyramid=2 b_adapt=1 b_bias=0 direct=3 weightb=1 open_gop=0 weightp=2 keyint=250 keyint_min=25 scenecut=40 intra_refresh=0 rc_lookahead=50 rc=cbr mbtree=1 bitrate=12000 ratetol=1.0 qcomp=0.60 qpmin=0 qpmax=69 qpstep=4 vbv_maxrate=12000 vbv_bufsize=12000 nal_hrd=none filler=0 ip_ratio=1.40 aq=1:1.00\nOutput #0, mp4, to 'C:\\Users\\Peter\\Desktop\\stuff\\MIUN\\quantitative_research\\video_compression\\compressed_videos\\BVI-HD\\h264\\12\\MartialArts_1920x1080_60fps_h264.mp4':\n  Metadata:\n    major_brand     : isom\n    minor_version   : 512\n    compatible_brands: isomiso2avc1mp41\n    encoder         : Lavf62.3.100\n  Stream #0:0(und): Video: h264 (avc1 / 0x31637661), yuv420p(tv, progressive), 1920x1080, q=2-31, 12000 kb/s, 60 fps, 15360 tbn (default)\n    Metadata:\n      encoder         : Lavc62.11.100 libx264\n      handler_name    : VideoHandler\n      vendor_id       : [0][0][0][0]\n    Side data:\n      cpb: bitrate max/min/avg: 12000000/0/12000000 buffer size: 12000000 vbv_delay: N/A\nframe=    0 fps=0.0 q=0.0 size=       0KiB time=N/A bitrate=N/A speed=N/A elapsed=0:00:00.52    \nframe=    0 fps=0.0 q=0.0 size=       0KiB time=N/A bitrate=N/A speed=N/A elapsed=0:00:01.14    \nframe=   10 fps=5.8 q=23.0 size=       0KiB time=00:00:00.11 bitrate=   3.3kbits/s speed=0.0676x elapsed=0:00:01.72    \nframe=   29 fps= 12 q=22.0 size=     512KiB time=00:00:00.45 bitrate=9321.5kbits/s speed=0.192x elapsed=0:00:02.33    \nframe=   46 fps= 16 q=23.0 size=     768KiB time=00:00:00.71 bitrate=8779.3kbits/s speed=0.243x elapsed=0:00:02.95    \nframe=   65 fps= 18 q=24.0 size=    1280KiB time=00:00:01.00 bitrate=10486.1kbits/s speed=0.282x elapsed=0:00:03.54    \nframe=   85 fps= 20 q=24.0 size=    1792KiB time=00:00:01.35 bitrate=10874.4kbits/s speed=0.324x elapsed=0:00:04.16    \nframe=  102 fps= 21 q=24.0 size=    2304KiB time=00:00:01.61 bitrate=11675.1kbits/s speed=0.339x elapsed=0:00:04.76    \nframe=  125 fps= 23 q=23.0 size=    2816KiB time=00:00:02.00 bitrate=11534.5kbits/s speed=0.373x elapsed=0:00:05.35    \nframe=  145 fps= 24 q=24.0 size=    3328KiB time=00:00:02.36 bitrate=11519.7kbits/s speed=0.399x elapsed=0:00:05.93    \nframe=  165 fps= 25 q=24.0 size=    3840KiB time=00:00:02.71 bitrate=11579.5kbits/s speed=0.416x elapsed=0:00:06.53    \nframe=  182 fps= 26 q=25.0 size=    4352KiB time=00:00:02.91 bitrate=12223.5kbits/s speed=0.41x elapsed=0:00:07.11    \nframe=  201 fps= 26 q=24.0 size=    4864KiB time=00:00:03.26 bitrate=12197.8kbits/s speed=0.423x elapsed=0:00:07.71    \nframe=  213 fps= 26 q=24.0 size=    5120KiB time=00:00:03.51 bitrate=11927.0kbits/s speed=0.426x elapsed=0:00:08.25    \nframe=  237 fps= 27 q=25.0 size=    5632KiB time=00:00:03.91 bitrate=11779.8kbits/s speed=0.445x elapsed=0:00:08.79    \nframe=  258 fps= 28 q=25.0 size=    6144KiB time=00:00:04.25 bitrate=11842.8kbits/s speed=0.454x elapsed=0:00:09.36    \nframe=  274 fps= 28 q=25.0 size=    6656KiB time=00:00:04.51 bitrate=12072.3kbits/s speed=0.454x elapsed=0:00:09.95    \nframe=  293 fps= 28 q=-1.0 size=    7168KiB time=00:00:04.85 bitrate=12107.3kbits/s speed=0.461x elapsed=0:00:10.51    \n[mp4 @ 000001f833261400] Starting second pass: moving the moov atom to the beginning of the file\n[out#0/mp4 @ 000001f833259c00] video:7437KiB audio:0KiB subtitle:0KiB other streams:0KiB global headers:0KiB muxing overhead: 0.059863%\nframe=  300 fps= 28 q=-1.0 Lsize=    7442KiB time=00:00:04.96 bitrate=12274.2kbits/s speed=0.467x elapsed=0:00:10.63    \n[libx264 @ 000001f83325e300] frame I:2     Avg QP:13.82  size: 75314\n[libx264 @ 000001f83325e300] frame P:75    Avg QP:16.77  size: 42524\n[libx264 @ 000001f83325e300] frame B:223   Avg QP:17.23  size: 19170\n[libx264 @ 000001f83325e300] consecutive B-frames:  0.7%  0.0%  2.0% 97.3%\n[libx264 @ 000001f83325e300] mb I  I16..4: 12.3% 86.6%  1.1%\n[libx264 @ 000001f83325e300] mb P  I16..4:  3.6% 42.0%  0.5%  P16..4: 25.5%  9.9%  6.6%  0.0%  0.0%    skip:11.9%\n[libx264 @ 000001f83325e300] mb B  I16..4:  1.5%  8.5%  0.0%  B16..8: 35.8% 12.8%  1.6%  direct: 9.2%  skip:30.6%  L0:57.4% L1:35.8% BI: 6.7%\n[libx264 @ 000001f83325e300] 8x8 transform intra:88.7% inter:83.7%\n[libx264 @ 000001f83325e300] direct mvs  spatial:95.5% temporal:4.5%\n[libx264 @ 000001f83325e300] coded y,uvDC,uvAC intra: 45.1% 28.2% 4.0% inter: 12.5% 25.7% 0.6%\n[libx264 @ 000001f83325e300] i16 v,h,dc,p: 43% 34% 14%  8%\n[libx264 @ 000001f83325e300] i8 v,h,dc,ddl,ddr,vr,hd,vl,hu: 25% 21% 42%  2%  2%  2%  2%  2%  2%\n[libx264 @ 000001f83325e300] i4 v,h,dc,ddl,ddr,vr,hd,vl,hu: 26% 13%  8%  5% 15% 14% 10%  5%  3%\n[libx264 @ 000001f83325e300] i8c dc,h,v,p: 55% 23% 20%  2%\n[libx264 @ 000001f83325e300] Weighted P-Frames: Y:0.0% UV:0.0%\n[libx264 @ 000001f83325e300] ref P L0: 36.7%  8.1% 31.9% 12.2% 11.2%\n[libx264 @ 000001f83325e300] ref B L0: 49.8% 33.0% 14.2%  3.0%\n[libx264 @ 000001f83325e300] ref B L1: 82.6% 17.4%\n[libx264 @ 000001f83325e300] kb/s:12183.84\n",
  "seconds": 10.974394798278809,
  "probe_out": {}
}